<?xml version="1.0"?>
<svg xmlns="http://www.w3.org/2000/svg" xmlns:xlink="http://www.w3.org/1999/xlink" version="1.1" id="Layer_1" x="0px" y="0px" viewBox="0 0 512 512" style="enable-background:new 0 0 512 512;" xml:space="preserve" width="512px" height="512px" class=""><g><g>
	<g>
		<path d="M226.155,76.8h-153.6c-4.713,0-8.533,3.82-8.533,8.533s3.82,8.533,8.533,8.533h153.6c4.713,0,8.533-3.821,8.533-8.533    S230.868,76.8,226.155,76.8z" data-original="#000000" class="active-path" data-old_color="#000000" fill="#FFFFFF"/>
	</g>
</g><g>
	<g>
		<path d="M226.155,110.933h-153.6c-4.713,0-8.533,3.82-8.533,8.533S67.843,128,72.555,128h153.6c4.713,0,8.533-3.82,8.533-8.533    S230.868,110.933,226.155,110.933z" data-original="#000000" class="active-path" data-old_color="#000000" fill="#FFFFFF"/>
	</g>
</g><g>
	<g>
		<path d="M226.155,145.067h-153.6c-4.713,0-8.533,3.821-8.533,8.533c0,4.713,3.82,8.533,8.533,8.533h153.6    c4.713,0,8.533-3.821,8.533-8.533C234.689,148.887,230.868,145.067,226.155,145.067z" data-original="#000000" class="active-path" data-old_color="#000000" fill="#FFFFFF"/>
	</g>
</g><g>
	<g>
		<path d="M226.155,179.2h-153.6c-4.713,0-8.533,3.82-8.533,8.533s3.82,8.533,8.533,8.533h153.6c4.713,0,8.533-3.82,8.533-8.533    S230.868,179.2,226.155,179.2z" data-original="#000000" class="active-path" data-old_color="#000000" fill="#FFFFFF"/>
	</g>
</g><g>
	<g>
		<path d="M472.742,281.574c-10.218-22.25-28.07-40.102-50.32-50.32v-0.085V128c0,0,0,0,0-0.512    c-0.055-0.817-0.228-1.622-0.512-2.389c0,0,0-0.427,0-0.683c-0.383-0.846-0.902-1.625-1.536-2.304L309.441,2.645h-0.512    c-0.592-0.515-1.253-0.946-1.963-1.28h-0.853c-0.769-0.598-1.635-1.06-2.56-1.365H55.489c-14.138,0-25.6,11.461-25.6,25.6v460.8    c0,14.138,11.461,25.6,25.6,25.6h341.333c14.138,0,25.6-11.461,25.6-25.6v-69.035    C473.816,393.763,496.345,332.967,472.742,281.574z M311.489,30.293l82.859,89.173h-74.325c-4.713,0-8.533-3.82-8.533-8.533    V30.293z M405.355,486.4c0,4.713-3.82,8.533-8.533,8.533H55.489c-4.713,0-8.533-3.82-8.533-8.533V25.6    c0-4.713,3.82-8.533,8.533-8.533h238.933v93.867c0,14.138,11.462,25.6,25.6,25.6h85.333v88.576h-2.048    c-2.844-0.683-5.689-1.223-8.533-1.621l-3.413-0.512c-56.153-6.719-107.122,33.355-113.841,89.508    c-6.719,56.153,33.355,107.122,89.508,113.841c8.082,0.967,16.251,0.967,24.333,0l3.413-0.512    c2.901-0.398,5.746-0.939,8.533-1.621h2.048V486.4z M459.266,355.349c-8.672,22.209-26.24,39.776-48.449,48.449    c-43.884,17.183-93.389-4.462-110.572-48.346c-17.183-43.884,4.462-93.389,48.346-110.572c18.318-7.173,38.552-7.796,57.276-1.764    l4.949,1.707C454.717,261.964,476.408,311.449,459.266,355.349z" data-original="#000000" class="active-path" data-old_color="#000000" fill="#FFFFFF"/>
	</g>
</g><g>
	<g>
		<path d="M430.955,298.667h-25.6v-25.6c0-4.713-3.82-8.533-8.533-8.533h-34.133c-4.713,0-8.533,3.821-8.533,8.533v25.6h-25.6    c-4.713,0-8.533,3.82-8.533,8.533v34.133c0,4.713,3.82,8.533,8.533,8.533h25.6v25.6c0,4.713,3.821,8.533,8.533,8.533h34.133    c4.713,0,8.533-3.82,8.533-8.533v-25.6h25.6c4.713,0,8.533-3.82,8.533-8.533V307.2    C439.489,302.487,435.668,298.667,430.955,298.667z M422.422,332.8h-25.6c-4.713,0-8.533,3.821-8.533,8.533v25.6h-17.067v-25.6    c0-4.713-3.821-8.533-8.533-8.533h-25.6v-17.067h25.6c4.713,0,8.533-3.82,8.533-8.533v-25.6h17.067v25.6    c0,4.713,3.82,8.533,8.533,8.533h25.6V332.8z" data-original="#000000" class="active-path" data-old_color="#000000" fill="#FFFFFF"/>
	</g>
</g></g> </svg>
