<?xml version="1.0"?>
<svg xmlns="http://www.w3.org/2000/svg" id="Capa_1" enable-background="new 0 0 488.471 488.471" height="512px" viewBox="0 0 488.471 488.471" width="512px"><g><path d="m152.647 244.235c33.675 0 61.059-27.384 61.059-61.059s-27.384-61.059-61.059-61.059-61.059 27.384-61.059 61.059 27.384 61.059 61.059 61.059zm0-91.588c16.83 0 30.529 13.699 30.529 30.529s-13.699 30.529-30.529 30.529-30.529-13.699-30.529-30.529 13.699-30.529 30.529-30.529z" data-original="#000000" class="active-path" data-old_color="#000000" fill="#FFFFFF"/><path d="m473.206 61.059h-457.941c-8.438 0-15.265 6.827-15.265 15.265v335.823c0 8.437 6.827 15.265 15.265 15.265h457.941c8.437 0 15.265-6.827 15.265-15.265v-335.823c0-8.438-6.828-15.265-15.265-15.265zm-442.677 30.529h427.412v268.444l-141.854-141.854c-5.963-5.963-15.622-5.963-21.585 0l-178.705 178.705h-85.268s0-305.294 0-305.295zm421.093 305.294h-292.654l146.327-146.327c0 .001 146.327 146.327 146.327 146.327z" data-original="#000000" class="active-path" data-old_color="#000000" fill="#FFFFFF"/></g> </svg>
