<?xml version="1.0"?>
<svg xmlns="http://www.w3.org/2000/svg" xmlns:xlink="http://www.w3.org/1999/xlink" version="1.1" id="Layer_1" x="0px" y="0px" viewBox="0 0 477.867 477.867" style="enable-background:new 0 0 477.867 477.867;" xml:space="preserve" width="512px" height="512px" class=""><g><g>
	<g>
		<g>
			<path d="M392.533,285.867c-47.128,0-85.333,38.205-85.333,85.333s38.205,85.333,85.333,85.333s85.333-38.205,85.333-85.333     S439.662,285.867,392.533,285.867z M443.733,379.733c0,4.713-3.821,8.533-8.533,8.533h-17.067c-4.713,0-8.533,3.82-8.533,8.533     v17.067c0,4.713-3.82,8.533-8.533,8.533H384c-4.713,0-8.533-3.821-8.533-8.533V396.8c0-4.713-3.82-8.533-8.533-8.533h-17.067     c-4.713,0-8.533-3.82-8.533-8.533v-17.067c0-4.713,3.82-8.533,8.533-8.533h17.067c4.713,0,8.533-3.82,8.533-8.533v-17.067     c0-4.713,3.821-8.533,8.533-8.533h17.067c4.713,0,8.533,3.82,8.533,8.533V345.6c0,4.713,3.82,8.533,8.533,8.533H435.2     c4.713,0,8.533,3.821,8.533,8.533V379.733z" data-original="#000000" class="active-path" data-old_color="#000000" fill="#007BFF"/>
			<path d="M452.267,106.667h-230.4c-23.564,0-42.667-19.102-42.667-42.667V46.933c0-14.138-11.461-25.6-25.6-25.6h-128     c-14.138,0-25.6,11.461-25.6,25.6v110.933c0,4.713,3.82,8.533,8.533,8.533h460.8c4.713,0,8.533-3.82,8.533-8.533v-25.6     C477.867,118.128,466.405,106.667,452.267,106.667z" data-original="#000000" class="active-path" data-old_color="#000000" fill="#007BFF"/>
			<path d="M469.333,183.467H8.533C3.82,183.467,0,187.287,0,192v196.267c0,14.138,11.462,25.6,25.6,25.6h273.835     c-1.28-2.816-2.389-5.632-3.413-8.533l-0.768-2.219c-1.023-3.08-1.877-6.214-2.56-9.387c-0.683-3.072-1.109-6.229-1.536-9.301     v-2.475c0-3.328-0.512-6.571-0.512-9.899c-0.472-56.552,44.99-102.779,101.542-103.251c0.115-0.001,0.231-0.002,0.346-0.002     c4.021,0.041,8.038,0.297,12.032,0.768l3.584,0.512c2.731,0.427,5.461,0.939,8.533,1.621c1.28,0,2.645,0.597,3.925,1.024     c2.645,0.683,5.291,1.621,7.851,2.56l3.157,1.109c3.521,1.448,6.967,3.071,10.325,4.864c0.337,0.276,0.711,0.506,1.109,0.683     c2.901,1.707,5.717,3.499,8.533,5.376l2.901,2.219c2.048,1.536,4.096,3.243,6.059,4.949l2.901,2.645     c1.963,1.877,3.925,3.84,5.717,5.888s1.451,1.536,2.133,2.304c2.358,2.89,4.552,5.909,6.571,9.045V192     C477.867,187.287,474.046,183.467,469.333,183.467z" data-original="#000000" class="active-path" data-old_color="#000000" fill="#007BFF"/>
		</g>
	</g>
</g></g> </svg>
