<?xml version="1.0" encoding="utf-8"?>
<!-- Generator: Adobe Illustrator 18.0.0, SVG Export Plug-In . SVG Version: 6.00 Build 0)  -->
<!DOCTYPE svg PUBLIC "-//W3C//DTD SVG 1.1//EN" "http://www.w3.org/Graphics/SVG/1.1/DTD/svg11.dtd">
<svg version="1.1" id="e4ebe004-ac85-4249-bdf7-a9685d9ba22f"
	 xmlns="http://www.w3.org/2000/svg" xmlns:xlink="http://www.w3.org/1999/xlink" x="0px" y="0px" viewBox="0 0 800 418"
	 enable-background="new 0 0 800 418" xml:space="preserve">
<title>voice interface</title>
<circle fill="#F2F2F2" cx="409.3" cy="201.9" r="201.9"/>
<path fill="#F68203" d="M278.6,344.6c-13,19.9-9.5,45.3-9.5,45.3s24.7-7,37.6-26.9c13-19.9,9.5-45.3,9.5-45.3
	S291.6,324.6,278.6,344.6z"/>
<path fill="#F68203" d="M269.1,389.6c0,0-0.3-0.1-0.9-0.2c-0.5-0.1-1.1-0.2-1.9-0.4c-7-1.7-25.5-7.2-37.7-21.8
	c-15.2-18.3-14.6-43.9-14.6-43.9s23.2,3.8,38.6,20.2c0.7,0.7,1.3,1.4,2,2.2c13.2,16,14.5,37.4,14.6,42.7
	C269.1,389.2,269.1,389.6,269.1,389.6z"/>
<path opacity="0.1" enable-background="new    " d="M269.1,388.4c-0.3,0.4-0.6,0.7-0.9,1c-0.6,0.6-0.9,1-0.9,1s-0.4-0.5-1-1.4
	c-3.5-4.9-14.8-22.3-13.9-42.4c0.1-1,0.1-2.1,0.2-3.1c0.7,0.7,1.3,1.4,2,2.2C267.8,361.7,269,383.1,269.1,388.4z"/>
<path fill="#F68203" d="M288.4,348.1c-1,23.8-18.7,42.4-18.7,42.4s-16-20-15-43.8c1-23.8,18.7-42.4,18.7-42.4
	S289.4,324.3,288.4,348.1z"/>
<line fill="none" stroke="#CE6B09" stroke-width="2" stroke-miterlimit="10" x1="269.7" y1="389.8" x2="273.6" y2="305.3"/>
<ellipse fill="#CE6B09" cx="400" cy="398.7" rx="236.3" ry="19.3"/>
<path fill="#020202" d="M437.6,167.2c-5.9,2-11.2,6.6-12.5,12.7c-0.6,2.8-0.2,5.8-0.7,8.6c-1.1,6.6-6.3,11.6-11.1,16.3
	c-4.8,4.7-9.7,10.1-10,16.8c-0.4,7.3,4.9,14.2,4,21.4c-1,8.4-10,13.9-12.2,22.1c-1.5,5.5,0.3,11.4,3.3,16.3
	c5.6,9.2,15.3,15.5,25.6,18.8c10.3,3.3,21.3,4.1,32,4.2c13.2,0.1,27.5-1,37.4-9.7c5.6-5,9.2-12,9.9-19.5c0.9-10.1-3.3-20.5-0.3-30.2
	c1.8-6.1,6.4-11.6,5.7-18c-0.7-6.2-6.1-10.6-9.8-15.6c-3.5-4.7-5.6-10.2-7.6-15.6l-7-18.6c-1.4-3.6-2.9-7.5-6-9.9
	c-5.8-4.5-15-3.6-21.8-2.7C450.3,165.6,443.6,165.2,437.6,167.2z"/>
<path fill="#FFB9B9" d="M439.8,221.4c0,0,3.1,10.1-20.3,21.8c-23.4,11.7,2.4,24.2,2.4,24.2l27.3,6.2c0,0,28.1-3.9,31.2-8.6
	c3.1-4.7,8.6-20.3,7-22.7c-1.2-1.7-2.5-3.2-3.9-4.7c0,0-18.7-3.1-18-11.7C466.3,217.5,439.8,221.4,439.8,221.4z"/>
<path opacity="0.1" enable-background="new    " d="M439.8,221.4c0,0,3.1,10.1-20.3,21.8c-23.4,11.7,2.4,24.2,2.4,24.2l27.3,6.2
	c0,0,28.1-3.9,31.2-8.6c3.1-4.7,8.6-20.3,7-22.7c-1.2-1.7-2.5-3.2-3.9-4.7c0,0-18.7-3.1-18-11.7
	C466.3,217.5,439.8,221.4,439.8,221.4z"/>
<circle fill="#FFB9B9" cx="455" cy="212.5" r="25"/>
<path fill="#F68203" d="M452.3,265.1c0,0-30.1-2.2-30.7-22.9c0,0-10.7-1.3-13.8,1.9c-3.1,3.2-13.3,5.5-13.3,13.3
	c0,7.8,17.2,31.2,17.2,31.2s9.4,31.2,5.5,36.7c-3.9,5.5-4.7,19.5-4.7,19.5s39-3.1,45.3,0c6.3,3.1,31.2,3.1,32.8,0
	c1.6-3.1-1.6-42.2-1.6-42.2s7-9.4,5.5-20.3l18.7-21.8c0,0-7-21.1-18-21.1c0,0-14.8-3.9-15.2-2C479.7,239.4,487.4,261.2,452.3,265.1z
	"/>
<path fill="#FFB9B9" d="M382,333.8c0,0,7,11,25,13.3c18,2.3,21.1-3.9,19.5-5.5s-20.3-8.6-20.3-8.6l-11-8.6L382,333.8z"/>
<path fill="#FFB9B9" d="M510,324.5l-20.3,11.7c0,0-26.6-1.6-16.4,6.2c10.1,7.8,28.9,4.7,28.9,4.7l18-8.6L510,324.5z"/>
<path fill="#2F2E41" d="M408.5,344.8c0,0-18.7,46.1,3.9,53.1s85.1,5.5,99.2-3.9c14.1-9.4,18-21.8,15.6-25.8
	c-2.4-3.9-18-14.8-28.9-15.6C487.5,351.8,408.5,344.8,408.5,344.8z"/>
<path opacity="5.000000e-002" enable-background="new    " d="M408.5,344.8c0,0-18.7,46.1,3.9,53.1s85.1,5.5,99.2-3.9
	c14.1-9.4,18-21.8,15.6-25.8c-2.4-3.9-18-14.8-28.9-15.6C487.5,351.8,408.5,344.8,408.5,344.8z"/>
<path fill="#2F2E41" d="M497,347.7c0,0,66.2-23.9,65.4,5s-42.2,36.7-42.2,36.7l-12.5,1.6l-68.7,2.4c0,0,2.4-12.5-3.1-14.1
	c0,0,18-4.7,18.7-5.5c0.8-0.8,45.3-16.4,48.4-17.2c3.1-0.8,12.5-7,19.5-6.2c0,0,7.8-6.2,16.4-4.7l-24.2,1.6L497,347.7z"/>
<path opacity="0.1" enable-background="new    " d="M497,347.7c0,0,66.2-23.9,65.4,5s-42.2,36.7-42.2,36.7l-12.5,1.6l-68.7,2.4
	c0,0,2.4-12.5-3.1-14.1c0,0,18-4.7,18.7-5.5c0.8-0.8,45.3-16.4,48.4-17.2c3.1-0.8,12.5-7,19.5-6.2c0,0,7.8-6.2,16.4-4.7l-24.2,1.6
	L497,347.7z"/>
<polygon fill="#2F2E41" points="485.3,351.5 493.7,370.6 544.4,352.6 548.3,342.4 535,340.1 508.4,344.8 496.8,347.9 "/>
<polygon opacity="0.1" enable-background="new    " points="485.3,351.5 493.7,370.6 544.4,352.6 548.3,342.4 535,340.1 
	508.4,344.8 496.8,347.9 "/>
<path fill="#2F2E41" d="M377.3,374.5c0,0,14.8,18.7,32,23.4c17.2,4.7,26.6-1.6,26.6-1.6l-5.5-21.8l-2.4-14.1l-10.1-7l-20.3-9.4
	l-24.2-7.8c0,0-10.1-1.6-10.1,0c0,1.6,9.4,25,9.4,25L377.3,374.5z"/>
<path fill="#F2F2F2" d="M395.3,384.6c0,0,3.1,22.7,7,24.2c3.9,1.6,15.6-1.6,18.7-3.1s13.7-8.8,13.7-8.8S397.6,383.1,395.3,384.6z"/>
<polygon fill="#FFB9B9" points="466.3,386.9 481.2,389.3 479.6,407.3 458.9,402.3 "/>
<path fill="#F2F2F2" d="M475.6,391.9c0,0-7,8.3,0.1,13l4.7,3.9c0,0,15.6,3.1,17.2,4.7c1.6,1.6,7.8-2.4,7.8-2.4s0.8-23.4,0-25
	c-0.8-1.6-10.1-3.1-11-1.6c-0.8,1.6-10.1,3.9-15.6,2.4L475.6,391.9z"/>
<path fill="#2F2E41" d="M413.2,350.3c0,0-54.6-32-63.2-20.3c-8.6,11.7-18,28.1,7,40.6c25,12.5,103.1,38.3,103.1,38.3
	s11.7-18,11.7-22.7c0,0-41.4-18.7-48.4-20.3c-7-1.6-35.2-19.5-39-21.1c-3.9-1.6-9.4-6.2-9.4-6.2L413.2,350.3z"/>
<path fill="#F68203" d="M397.6,253.4l-3.1,2.4c0,0-7,18-7.8,28.1c-0.7,10.1-10.1,41.4-9.4,45.3c0.8,3.9,1.6,7,6.2,11
	c0,0,6.2-14.1,17.2-11.7l13.3-48.4L397.6,253.4z"/>
<path fill="#F68203" d="M506.9,253.4l6.2,7c0,0,3.9,9.4,3.9,11.7s7.8,36.7,8.6,38.3c0.8,1.6,3.9,21.1,0,25.8c-3.9,4.7-11,7.8-11,7.8
	s4.7-16.4-10.1-17.2l1.6-6.2L492,273.7L506.9,253.4z"/>
<path fill="#E57607" d="M399.1,307.2v41.2c0,5.4,4.3,9.8,9.7,9.9l86,1.3c5.4,0.1,9.8-4.2,10-9.5l1.6-41.2c0.2-5.5-4-10-9.5-10.3
	c-0.1,0-0.2,0-0.2,0l-87.6-1.3c-5.5-0.1-10,4.3-10,9.7C399.1,307.1,399.1,307.2,399.1,307.2z"/>
<ellipse fill="#020202" cx="456.5" cy="197.1" rx="26.9" ry="14.5"/>
<circle fill="#F2F2F2" cx="451.9" cy="328.8" r="6.2"/>
<path fill="#C1670E" d="M621.9,327.5v71.4c0,1.2-0.6,1.4-1.7,2c-3.6,2-12.5,5.6-23.2-0.1c-1.1-0.6-1.8-0.7-1.8-2V328
	C595.2,328,608.8,333.4,621.9,327.5z"/>
<ellipse fill="#F68203" cx="608.5" cy="327.4" rx="13.4" ry="2.8"/>
<g opacity="0.8">
	<circle cx="620.7" cy="357.1" r="0.3"/>
	<circle cx="619.1" cy="357.6" r="0.3"/>
	<circle cx="617.3" cy="358.2" r="0.3"/>
	<circle cx="613.9" cy="358.9" r="0.3"/>
	<circle cx="610.3" cy="359.3" r="0.3"/>
	<circle cx="606.7" cy="359.5" r="0.3"/>
	<circle cx="601.4" cy="358.7" r="0.3"/>
	<circle cx="603.1" cy="359.2" r="0.3"/>
	<circle cx="598.1" cy="358.2" r="0.3"/>
	<circle cx="599.7" cy="358.5" r="0.3"/>
	<circle cx="596.4" cy="357.6" r="0.3"/>
	<circle cx="615.6" cy="358.6" r="0.3"/>
	<circle cx="612.1" cy="359.2" r="0.3"/>
	<circle cx="608.3" cy="359.5" r="0.3"/>
	<circle cx="604.8" cy="359.5" r="0.3"/>
</g>
<g opacity="0.8">
	<circle cx="620.7" cy="358.6" r="0.3"/>
	<circle cx="619.1" cy="359" r="0.3"/>
	<circle cx="617.3" cy="359.7" r="0.3"/>
	<circle cx="613.9" cy="360.4" r="0.3"/>
	<circle cx="610.3" cy="360.8" r="0.3"/>
	<circle cx="606.7" cy="361" r="0.3"/>
	<circle cx="601.4" cy="360.2" r="0.3"/>
	<circle cx="603.1" cy="360.6" r="0.3"/>
	<circle cx="598.1" cy="359.7" r="0.3"/>
	<circle cx="599.7" cy="360" r="0.3"/>
	<circle cx="596.4" cy="359" r="0.3"/>
	<circle cx="615.6" cy="360.1" r="0.3"/>
	<circle cx="612.1" cy="360.6" r="0.3"/>
	<circle cx="608.3" cy="361" r="0.3"/>
	<circle cx="604.8" cy="361" r="0.3"/>
</g>
<g opacity="0.8">
	<circle cx="620.7" cy="360.1" r="0.3"/>
	<circle cx="619.1" cy="360.5" r="0.3"/>
	<circle cx="617.3" cy="361.1" r="0.3"/>
	<circle cx="613.9" cy="361.9" r="0.3"/>
	<circle cx="610.3" cy="362.3" r="0.3"/>
	<circle cx="606.7" cy="362.4" r="0.3"/>
	<circle cx="601.4" cy="361.7" r="0.3"/>
	<circle cx="603.1" cy="362.1" r="0.3"/>
	<circle cx="598.1" cy="361.1" r="0.3"/>
	<circle cx="599.7" cy="361.4" r="0.3"/>
	<circle cx="596.4" cy="360.5" r="0.3"/>
	<circle cx="615.6" cy="361.6" r="0.3"/>
	<circle cx="612.1" cy="362.1" r="0.3"/>
	<circle cx="608.3" cy="362.4" r="0.3"/>
	<circle cx="604.8" cy="362.4" r="0.3"/>
</g>
<g opacity="0.8">
	<circle cx="620.7" cy="361.6" r="0.3"/>
	<circle cx="619.1" cy="362" r="0.3"/>
	<circle cx="617.3" cy="362.6" r="0.3"/>
	<circle cx="613.9" cy="363.3" r="0.3"/>
	<circle cx="610.3" cy="363.8" r="0.3"/>
	<circle cx="606.7" cy="363.9" r="0.3"/>
	<circle cx="601.4" cy="363.2" r="0.3"/>
	<circle cx="603.1" cy="363.6" r="0.3"/>
	<circle cx="598.1" cy="362.6" r="0.3"/>
	<circle cx="599.7" cy="362.9" r="0.3"/>
	<circle cx="596.4" cy="362" r="0.3"/>
	<circle cx="615.6" cy="363" r="0.3"/>
	<circle cx="612.1" cy="363.6" r="0.3"/>
	<circle cx="608.3" cy="363.9" r="0.3"/>
	<circle cx="604.8" cy="363.9" r="0.3"/>
</g>
<g opacity="0.8">
	<circle cx="620.7" cy="363.1" r="0.3"/>
	<circle cx="619.1" cy="363.5" r="0.3"/>
	<circle cx="617.3" cy="364" r="0.3"/>
	<circle cx="613.9" cy="364.8" r="0.3"/>
	<circle cx="610.3" cy="365.2" r="0.3"/>
	<circle cx="606.7" cy="365.4" r="0.3"/>
	<circle cx="601.4" cy="364.7" r="0.3"/>
	<circle cx="603.1" cy="365.1" r="0.3"/>
	<circle cx="598.1" cy="364" r="0.3"/>
	<circle cx="599.7" cy="364.4" r="0.3"/>
	<circle cx="596.4" cy="363.5" r="0.3"/>
	<circle cx="615.6" cy="364.5" r="0.3"/>
	<circle cx="612.1" cy="365.1" r="0.3"/>
	<circle cx="608.3" cy="365.4" r="0.3"/>
	<circle cx="604.8" cy="365.4" r="0.3"/>
</g>
<g opacity="0.8">
	<circle cx="620.7" cy="364.5" r="0.3"/>
	<circle cx="619.1" cy="365" r="0.3"/>
	<circle cx="617.3" cy="365.5" r="0.3"/>
	<circle cx="613.9" cy="366.3" r="0.3"/>
	<circle cx="610.3" cy="366.7" r="0.3"/>
	<circle cx="606.7" cy="366.9" r="0.3"/>
	<circle cx="601.4" cy="366.1" r="0.3"/>
	<circle cx="603.1" cy="366.6" r="0.3"/>
	<circle cx="598.1" cy="365.5" r="0.3"/>
	<circle cx="599.7" cy="365.8" r="0.3"/>
	<circle cx="596.4" cy="365" r="0.3"/>
	<circle cx="615.6" cy="366" r="0.3"/>
	<circle cx="612.1" cy="366.6" r="0.3"/>
	<circle cx="608.3" cy="366.9" r="0.3"/>
	<circle cx="604.8" cy="366.9" r="0.3"/>
</g>
<g opacity="0.8">
	<circle cx="620.7" cy="366" r="0.3"/>
	<circle cx="619.1" cy="366.4" r="0.3"/>
	<circle cx="617.3" cy="367" r="0.3"/>
	<circle cx="613.9" cy="367.7" r="0.3"/>
	<circle cx="610.3" cy="368.2" r="0.3"/>
	<circle cx="606.7" cy="368.4" r="0.3"/>
	<circle cx="601.4" cy="367.6" r="0.3"/>
	<circle cx="603.1" cy="368" r="0.3"/>
	<circle cx="598.1" cy="367" r="0.3"/>
	<circle cx="599.7" cy="367.3" r="0.3"/>
	<circle cx="596.4" cy="366.4" r="0.3"/>
	<circle cx="615.6" cy="367.5" r="0.3"/>
	<circle cx="612.1" cy="368" r="0.3"/>
	<circle cx="608.3" cy="368.4" r="0.3"/>
	<circle cx="604.8" cy="368.4" r="0.3"/>
</g>
<g opacity="0.8">
	<circle cx="620.7" cy="367.5" r="0.3"/>
	<circle cx="619.1" cy="367.9" r="0.3"/>
	<circle cx="617.3" cy="368.5" r="0.3"/>
	<circle cx="613.9" cy="369.2" r="0.3"/>
	<circle cx="610.3" cy="369.6" r="0.3"/>
	<circle cx="606.7" cy="369.8" r="0.3"/>
	<circle cx="601.4" cy="369.1" r="0.3"/>
	<circle cx="603.1" cy="369.5" r="0.3"/>
	<circle cx="598.1" cy="368.5" r="0.3"/>
	<circle cx="599.7" cy="368.8" r="0.3"/>
	<circle cx="596.4" cy="367.9" r="0.3"/>
	<circle cx="615.6" cy="368.9" r="0.3"/>
	<circle cx="612.1" cy="369.5" r="0.3"/>
	<circle cx="608.3" cy="369.8" r="0.3"/>
	<circle cx="604.8" cy="369.8" r="0.3"/>
</g>
<g opacity="0.8">
	<circle cx="620.7" cy="368.9" r="0.3"/>
	<circle cx="619.1" cy="369.4" r="0.3"/>
	<circle cx="617.3" cy="370" r="0.3"/>
	<circle cx="613.9" cy="370.7" r="0.3"/>
	<circle cx="610.3" cy="371.1" r="0.3"/>
	<circle cx="606.7" cy="371.3" r="0.3"/>
	<circle cx="601.4" cy="370.6" r="0.3"/>
	<circle cx="603.1" cy="371" r="0.3"/>
	<circle cx="598.1" cy="370" r="0.3"/>
	<circle cx="599.7" cy="370.3" r="0.3"/>
	<circle cx="596.4" cy="369.4" r="0.3"/>
	<circle cx="615.6" cy="370.4" r="0.3"/>
	<circle cx="612.1" cy="371" r="0.3"/>
	<circle cx="608.3" cy="371.3" r="0.3"/>
	<circle cx="604.8" cy="371.3" r="0.3"/>
</g>
<g opacity="0.8">
	<circle cx="620.7" cy="370.4" r="0.3"/>
	<circle cx="619.1" cy="370.9" r="0.3"/>
	<circle cx="617.3" cy="371.4" r="0.3"/>
	<circle cx="613.9" cy="372.2" r="0.3"/>
	<circle cx="610.3" cy="372.6" r="0.3"/>
	<circle cx="606.7" cy="372.8" r="0.3"/>
	<circle cx="601.4" cy="372.1" r="0.3"/>
	<circle cx="603.1" cy="372.5" r="0.3"/>
	<circle cx="598.1" cy="371.4" r="0.3"/>
	<circle cx="599.7" cy="371.8" r="0.3"/>
	<circle cx="596.4" cy="370.9" r="0.3"/>
	<circle cx="615.6" cy="371.9" r="0.3"/>
	<circle cx="612.1" cy="372.5" r="0.3"/>
	<circle cx="608.3" cy="372.8" r="0.3"/>
	<circle cx="604.8" cy="372.8" r="0.3"/>
</g>
<g opacity="0.8">
	<circle cx="620.7" cy="371.9" r="0.3"/>
	<circle cx="619.1" cy="372.3" r="0.3"/>
	<circle cx="617.3" cy="372.9" r="0.3"/>
	<circle cx="613.9" cy="373.7" r="0.3"/>
	<circle cx="610.3" cy="374.1" r="0.3"/>
	<circle cx="606.7" cy="374.3" r="0.3"/>
	<circle cx="601.4" cy="373.5" r="0.3"/>
	<circle cx="603.1" cy="374" r="0.3"/>
	<circle cx="598.1" cy="372.9" r="0.3"/>
	<circle cx="599.7" cy="373.2" r="0.3"/>
	<circle cx="596.4" cy="372.3" r="0.3"/>
	<circle cx="615.6" cy="373.3" r="0.3"/>
	<circle cx="612.1" cy="374" r="0.3"/>
	<circle cx="608.3" cy="374.3" r="0.3"/>
	<circle cx="604.8" cy="374.3" r="0.3"/>
</g>
<g opacity="0.8">
	<circle cx="620.7" cy="373.4" r="0.3"/>
	<circle cx="619.1" cy="373.8" r="0.3"/>
	<circle cx="617.3" cy="374.4" r="0.3"/>
	<circle cx="613.9" cy="375.1" r="0.3"/>
	<circle cx="610.3" cy="375.6" r="0.3"/>
	<circle cx="606.7" cy="375.8" r="0.3"/>
	<circle cx="601.4" cy="375" r="0.3"/>
	<circle cx="603.1" cy="375.4" r="0.3"/>
	<circle cx="598.1" cy="374.4" r="0.3"/>
	<circle cx="599.7" cy="374.7" r="0.3"/>
	<circle cx="596.4" cy="373.8" r="0.3"/>
	<circle cx="615.6" cy="374.8" r="0.3"/>
	<circle cx="612.1" cy="375.4" r="0.3"/>
	<circle cx="608.3" cy="375.8" r="0.3"/>
	<circle cx="604.8" cy="375.8" r="0.3"/>
</g>
<g opacity="0.8">
	<circle cx="620.7" cy="374.8" r="0.3"/>
	<circle cx="619.1" cy="375.3" r="0.3"/>
	<circle cx="617.3" cy="375.9" r="0.3"/>
	<circle cx="613.9" cy="376.6" r="0.3"/>
	<circle cx="610.3" cy="377" r="0.3"/>
	<circle cx="606.7" cy="377.2" r="0.3"/>
	<circle cx="601.4" cy="376.5" r="0.3"/>
	<circle cx="603.1" cy="376.9" r="0.3"/>
	<circle cx="598.1" cy="375.9" r="0.3"/>
	<circle cx="599.7" cy="376.2" r="0.3"/>
	<circle cx="596.4" cy="375.3" r="0.3"/>
	<circle cx="615.6" cy="376.3" r="0.3"/>
	<circle cx="612.1" cy="376.9" r="0.3"/>
	<circle cx="608.3" cy="377.2" r="0.3"/>
	<circle cx="604.8" cy="377.2" r="0.3"/>
</g>
<g opacity="0.8">
	<circle cx="620.7" cy="376.3" r="0.3"/>
	<circle cx="619.1" cy="376.7" r="0.3"/>
	<circle cx="617.3" cy="377.4" r="0.3"/>
	<circle cx="613.9" cy="378.1" r="0.3"/>
	<circle cx="610.3" cy="378.5" r="0.3"/>
	<circle cx="606.7" cy="378.7" r="0.3"/>
	<circle cx="601.4" cy="377.9" r="0.3"/>
	<circle cx="603.1" cy="378.4" r="0.3"/>
	<circle cx="598.1" cy="377.4" r="0.3"/>
	<circle cx="599.7" cy="377.7" r="0.3"/>
	<circle cx="596.4" cy="376.7" r="0.3"/>
	<circle cx="615.6" cy="377.8" r="0.3"/>
	<circle cx="612.1" cy="378.4" r="0.3"/>
	<circle cx="608.3" cy="378.7" r="0.3"/>
	<circle cx="604.8" cy="378.7" r="0.3"/>
</g>
<g opacity="0.8">
	<circle cx="620.7" cy="377.8" r="0.3"/>
	<circle cx="619.1" cy="378.2" r="0.3"/>
	<circle cx="617.3" cy="378.8" r="0.3"/>
	<circle cx="613.9" cy="379.6" r="0.3"/>
	<circle cx="610.3" cy="380" r="0.3"/>
	<circle cx="606.7" cy="380.2" r="0.3"/>
	<circle cx="601.4" cy="379.4" r="0.3"/>
	<circle cx="603.1" cy="379.8" r="0.3"/>
	<circle cx="598.1" cy="378.8" r="0.3"/>
	<circle cx="599.7" cy="379.2" r="0.3"/>
	<circle cx="596.4" cy="378.2" r="0.3"/>
	<circle cx="615.6" cy="379.3" r="0.3"/>
	<circle cx="612.1" cy="379.8" r="0.3"/>
	<circle cx="608.3" cy="380.2" r="0.3"/>
	<circle cx="604.8" cy="380.2" r="0.3"/>
</g>
<g opacity="0.8">
	<circle cx="620.7" cy="379.3" r="0.3"/>
	<circle cx="619.1" cy="379.7" r="0.3"/>
	<circle cx="617.3" cy="380.3" r="0.3"/>
	<circle cx="613.9" cy="381.1" r="0.3"/>
	<circle cx="610.3" cy="381.5" r="0.3"/>
	<circle cx="606.7" cy="381.6" r="0.3"/>
	<circle cx="601.4" cy="380.9" r="0.3"/>
	<circle cx="603.1" cy="381.3" r="0.3"/>
	<circle cx="598.1" cy="380.3" r="0.3"/>
	<circle cx="599.7" cy="380.6" r="0.3"/>
	<circle cx="596.4" cy="379.7" r="0.3"/>
	<circle cx="615.6" cy="380.8" r="0.3"/>
	<circle cx="612.1" cy="381.3" r="0.3"/>
	<circle cx="608.3" cy="381.6" r="0.3"/>
	<circle cx="604.8" cy="381.6" r="0.3"/>
</g>
<g opacity="0.8">
	<circle cx="620.7" cy="380.8" r="0.3"/>
	<circle cx="619.1" cy="381.2" r="0.3"/>
	<circle cx="617.3" cy="381.8" r="0.3"/>
	<circle cx="613.9" cy="382.5" r="0.3"/>
	<circle cx="610.3" cy="383" r="0.3"/>
	<circle cx="606.7" cy="383.1" r="0.3"/>
	<circle cx="601.4" cy="382.4" r="0.3"/>
	<circle cx="603.1" cy="382.8" r="0.3"/>
	<circle cx="598.1" cy="381.8" r="0.3"/>
	<circle cx="599.7" cy="382.1" r="0.3"/>
	<circle cx="596.4" cy="381.2" r="0.3"/>
	<circle cx="615.6" cy="382.2" r="0.3"/>
	<circle cx="612.1" cy="382.8" r="0.3"/>
	<circle cx="608.3" cy="383.1" r="0.3"/>
	<circle cx="604.8" cy="383.1" r="0.3"/>
</g>
<g opacity="0.8">
	<circle cx="620.7" cy="382.3" r="0.3"/>
	<circle cx="619.1" cy="382.7" r="0.3"/>
	<circle cx="617.3" cy="383.2" r="0.3"/>
	<circle cx="613.9" cy="384" r="0.3"/>
	<circle cx="610.3" cy="384.4" r="0.3"/>
	<circle cx="606.7" cy="384.6" r="0.3"/>
	<circle cx="601.4" cy="383.9" r="0.3"/>
	<circle cx="603.1" cy="384.3" r="0.3"/>
	<circle cx="598.1" cy="383.2" r="0.3"/>
	<circle cx="599.7" cy="383.6" r="0.3"/>
	<circle cx="596.4" cy="382.7" r="0.3"/>
	<circle cx="615.6" cy="383.7" r="0.3"/>
	<circle cx="612.1" cy="384.3" r="0.3"/>
	<circle cx="608.3" cy="384.6" r="0.3"/>
	<circle cx="604.8" cy="384.6" r="0.3"/>
</g>
<g opacity="0.8">
	<circle cx="620.7" cy="383.7" r="0.3"/>
	<circle cx="619.1" cy="384.2" r="0.3"/>
	<circle cx="617.3" cy="384.7" r="0.3"/>
	<circle cx="613.9" cy="385.5" r="0.3"/>
	<circle cx="610.3" cy="385.9" r="0.3"/>
	<circle cx="606.7" cy="386.1" r="0.3"/>
	<circle cx="601.4" cy="385.3" r="0.3"/>
	<circle cx="603.1" cy="385.8" r="0.3"/>
	<circle cx="598.1" cy="384.7" r="0.3"/>
	<circle cx="599.7" cy="385" r="0.3"/>
	<circle cx="596.4" cy="384.2" r="0.3"/>
	<circle cx="615.6" cy="385.1" r="0.3"/>
	<circle cx="612.1" cy="385.8" r="0.3"/>
	<circle cx="608.3" cy="386.1" r="0.3"/>
	<circle cx="604.8" cy="386.1" r="0.3"/>
</g>
<g opacity="0.8">
	<circle cx="620.7" cy="385.2" r="0.3"/>
	<circle cx="619.1" cy="385.6" r="0.3"/>
	<circle cx="617.3" cy="386.2" r="0.3"/>
	<circle cx="613.9" cy="386.9" r="0.3"/>
	<circle cx="610.3" cy="387.4" r="0.3"/>
	<circle cx="606.7" cy="387.6" r="0.3"/>
	<circle cx="601.4" cy="386.8" r="0.3"/>
	<circle cx="603.1" cy="387.2" r="0.3"/>
	<circle cx="598.1" cy="386.2" r="0.3"/>
	<circle cx="599.7" cy="386.5" r="0.3"/>
	<circle cx="596.4" cy="385.6" r="0.3"/>
	<circle cx="615.6" cy="386.6" r="0.3"/>
	<circle cx="612.1" cy="387.2" r="0.3"/>
	<circle cx="608.3" cy="387.6" r="0.3"/>
	<circle cx="604.8" cy="387.6" r="0.3"/>
</g>
<g opacity="0.8">
	<circle cx="620.7" cy="386.6" r="0.3"/>
	<circle cx="619.1" cy="387.1" r="0.3"/>
	<circle cx="617.3" cy="387.7" r="0.3"/>
	<circle cx="613.9" cy="388.4" r="0.3"/>
	<circle cx="610.3" cy="388.8" r="0.3"/>
	<circle cx="606.7" cy="389" r="0.3"/>
	<circle cx="601.4" cy="388.3" r="0.3"/>
	<circle cx="603.1" cy="388.7" r="0.3"/>
	<circle cx="598.1" cy="387.7" r="0.3"/>
	<circle cx="599.7" cy="388" r="0.3"/>
	<circle cx="596.4" cy="387.1" r="0.3"/>
	<circle cx="615.6" cy="388.1" r="0.3"/>
	<circle cx="612.1" cy="388.7" r="0.3"/>
	<circle cx="608.3" cy="389" r="0.3"/>
	<circle cx="604.8" cy="389" r="0.3"/>
</g>
<g opacity="0.8">
	<circle cx="620.7" cy="388.1" r="0.3"/>
	<circle cx="619.1" cy="388.5" r="0.3"/>
	<circle cx="617.3" cy="389.2" r="0.3"/>
	<circle cx="613.9" cy="389.9" r="0.3"/>
	<circle cx="610.3" cy="390.3" r="0.3"/>
	<circle cx="606.7" cy="390.5" r="0.3"/>
	<circle cx="601.4" cy="389.8" r="0.3"/>
	<circle cx="603.1" cy="390.2" r="0.3"/>
	<circle cx="598.1" cy="389.2" r="0.3"/>
	<circle cx="599.7" cy="389.5" r="0.3"/>
	<circle cx="596.4" cy="388.5" r="0.3"/>
	<circle cx="615.6" cy="389.6" r="0.3"/>
	<circle cx="612.1" cy="390.2" r="0.3"/>
	<circle cx="608.3" cy="390.5" r="0.3"/>
	<circle cx="604.8" cy="390.5" r="0.3"/>
</g>
<g opacity="0.8">
	<circle cx="620.7" cy="389.6" r="0.3"/>
	<circle cx="619.1" cy="390" r="0.3"/>
	<circle cx="617.3" cy="390.6" r="0.3"/>
	<circle cx="613.9" cy="391.4" r="0.3"/>
	<circle cx="610.3" cy="391.8" r="0.3"/>
	<circle cx="606.7" cy="391.9" r="0.3"/>
	<circle cx="601.4" cy="391.3" r="0.3"/>
	<circle cx="603.1" cy="391.7" r="0.3"/>
	<circle cx="598.1" cy="390.6" r="0.3"/>
	<circle cx="599.7" cy="391" r="0.3"/>
	<circle cx="596.4" cy="390" r="0.3"/>
	<circle cx="615.6" cy="391.1" r="0.3"/>
	<circle cx="612.1" cy="391.7" r="0.3"/>
	<circle cx="608.3" cy="391.9" r="0.3"/>
	<circle cx="604.8" cy="391.9" r="0.3"/>
</g>
<g opacity="0.8">
	<circle cx="620.7" cy="391.1" r="0.3"/>
	<circle cx="619.1" cy="391.5" r="0.3"/>
	<circle cx="617.3" cy="392.1" r="0.3"/>
	<circle cx="613.9" cy="392.9" r="0.3"/>
	<circle cx="610.3" cy="393.3" r="0.3"/>
	<circle cx="606.7" cy="393.4" r="0.3"/>
	<circle cx="601.4" cy="392.7" r="0.3"/>
	<circle cx="603.1" cy="393.2" r="0.3"/>
	<circle cx="598.1" cy="392.1" r="0.3"/>
	<circle cx="599.7" cy="392.4" r="0.3"/>
	<circle cx="596.4" cy="391.5" r="0.3"/>
	<circle cx="615.6" cy="392.5" r="0.3"/>
	<circle cx="612.1" cy="393.2" r="0.3"/>
	<circle cx="608.3" cy="393.4" r="0.3"/>
	<circle cx="604.8" cy="393.4" r="0.3"/>
</g>
</svg>
