<svg xmlns="http://www.w3.org/2000/svg" viewBox="0 0 216 216"><defs><style>.cls-1,.cls-2{fill:#fff;}.cls-1{opacity:0.1;}</style></defs><title>Asset 30</title><g id="Layer_2" data-name="Layer 2"><g id="Layer_1-2" data-name="Layer 1"><path class="cls-1" d="M108,0A108,108,0,1,0,216,108,108,108,0,0,0,108,0Zm0,164a56,56,0,1,1,56-56A56,56,0,0,1,108,164Z"/><path class="cls-2" d="M108,37.31A70.69,70.69,0,1,0,178.69,108,70.69,70.69,0,0,0,108,37.31ZM108,164a56,56,0,1,1,56-56A56,56,0,0,1,108,164Z"/></g></g></svg>