<?xml version="1.0"?>
<svg xmlns="http://www.w3.org/2000/svg" height="512px" viewBox="0 0 56 56" width="512px" class=""><g><g id="Page-1" fill="none" fill-rule="evenodd"><g id="016---PC-and-Monitor" fill="rgb(0,0,0)" fill-rule="nonzero"><circle id="Oval" cx="50" cy="23" r="1" data-original="#000000" class="active-path" data-old_color="#000000" fill="#007BFF"/><path id="Shape" d="m31 54h-20c-.5522847 0-1 .4477153-1 1s.4477153 1 1 1h20c.5522847 0 1-.4477153 1-1s-.4477153-1-1-1z" data-original="#000000" class="active-path" data-old_color="#000000" fill="#007BFF"/><path id="Shape" d="m27 46h12c1.6568542 0 3-1.3431458 3-3h-42c0 1.6568542 1.34314575 3 3 3z" data-original="#000000" class="active-path" data-old_color="#000000" fill="#007BFF"/><path id="Rectangle-path" d="m16 48h10v4h-10z" data-original="#000000" class="active-path" data-old_color="#000000" fill="#007BFF"/><circle id="Oval" cx="50" cy="15" r="1" data-original="#000000" class="active-path" data-old_color="#000000" fill="#007BFF"/><path id="Shape" d="m42 17c0-1.6568542-1.3431458-3-3-3h-36c-1.65685425 0-3 1.3431458-3 3v24h42zm-39.71 3.29 4-4c.25365857-.2536586.62337399-.3527235.96987804-.259878.34650405.0928454.61715452.3634959.71.71.09284548.346504-.00621947.7162194-.25987804.969878l-4 4c-.1877666.1893127-.44336246.2957983-.71.2957983s-.5222334-.1064856-.71-.2957983c-.18931265-.1877666-.29579832-.4433625-.29579832-.71s.10648567-.5222334.29579832-.71zm11.42-2.58-10 10c-.1877666.1893127-.44336246.2957983-.71.2957983s-.5222334-.1064856-.71-.2957983c-.18931265-.1877666-.29579832-.4433625-.29579832-.71s.10648567-.5222334.29579832-.71l10-10c.2536586-.2536586.623374-.3527235.969878-.259878.3465041.0928454.6171546.3634959.71.71.0928455.346504-.0062194.7162194-.259878.969878z" data-original="#000000" class="active-path" data-old_color="#000000" fill="#007BFF"/><path id="Shape" d="m55 0h-26c-.5522847 0-1 .44771525-1 1v11h11c2.7614237 0 5 2.2385763 5 5v26c0 2.7614237-2.2385763 5-5 5h-11v4h3c.9724158.0027302 1.8831896.476617 2.4434995 1.2713829.5603099.7947658.7006442 1.8118124.3765005 2.7286171h21.18c.5522847 0 1-.4477153 1-1v-54c0-.55228475-.4477153-1-1-1zm-17 53c0 .5522847-.4477153 1-1 1s-1-.4477153-1-1v-2c0-.5522847.4477153-1 1-1s1 .4477153 1 1zm4 0c0 .5522847-.4477153 1-1 1s-1-.4477153-1-1v-2c0-.5522847.4477153-1 1-1s1 .4477153 1 1zm4 0c0 .5522847-.4477153 1-1 1s-1-.4477153-1-1v-2c0-.5522847.4477153-1 1-1s1 .4477153 1 1zm4 0c0 .5522847-.4477153 1-1 1s-1-.4477153-1-1v-2c0-.5522847.4477153-1 1-1s1 .4477153 1 1zm-3-30c0-1.6568542 1.3431458-3 3-3s3 1.3431458 3 3-1.3431458 3-3 3-3-1.3431458-3-3zm0-8c0-1.6568542 1.3431458-3 3-3s3 1.3431458 3 3-1.3431458 3-3 3-3-1.3431458-3-3zm7 38c0 .5522847-.4477153 1-1 1s-1-.4477153-1-1v-2c0-.5522847.4477153-1 1-1s1 .4477153 1 1zm0-46c0 1.1045695-.8954305 2-2 2h-20c-1.1045695 0-2-.8954305-2-2v-2c0-1.1045695.8954305-2 2-2h20c1.1045695 0 2 .8954305 2 2z" data-original="#000000" class="active-path" data-old_color="#000000" fill="#007BFF"/><path id="Rectangle-path" d="m32 5h20v2h-20z" data-original="#000000" class="active-path" data-old_color="#000000" fill="#007BFF"/></g></g></g> </svg>
